<svg xmlns="http://www.w3.org/2000/svg" viewBox="0 0 127 147"><title>group2</title><g id="Layer_2" data-name="Layer 2"><g id="Layer_1_copy" data-name="Layer 1 copy"><rect x="1.5" y="49.5" width="124" height="48" rx="20" ry="20" style="fill:#bfbfbf;stroke:#919191;stroke-miterlimit:10;stroke-width:3px"/><path d="M66.10939,66.72957c-25.07965,6.02258-46.79608,14.37152-60.66,22.62891A19.98377,19.98377,0,0,0,21.5,97.5h84a20.0588,20.0588,0,0,0,20-20v-8a19.80814,19.80814,0,0,0-2.96326-10.39966C107.17788,59.11147,87.33626,61.63216,66.10939,66.72957Z" style="fill:#fcfafb;opacity:0.6"/><rect x="1.5" y="49.5" width="124" height="48" rx="20" ry="20" style="fill:none;stroke:#919191;stroke-miterlimit:10;stroke-width:3px"/><path d="M27.21956,88.1888A14.71948,14.71948,0,1,1,41.9388,73.46956,14.736,14.736,0,0,1,27.21956,88.1888Z" style="fill:#606060"/><path d="M27.21944,60.25A13.21943,13.21943,0,1,1,14,73.46944,13.23441,13.23441,0,0,1,27.21944,60.25m0-3A16.21943,16.21943,0,1,0,43.43888,73.46944,16.21943,16.21943,0,0,0,27.21944,57.25Z" style="fill:#999"/><ellipse cx="30.82376" cy="77.07376" rx="14.05685" ry="11.17339" transform="translate(-45.47131 44.37007) rotate(-45)" style="fill:#fff;opacity:0.14"/><path d="M27.21944,60.25A13.21943,13.21943,0,1,1,14,73.46944,13.23441,13.23441,0,0,1,27.21944,60.25m0-3A16.21943,16.21943,0,1,0,43.43888,73.46944,16.21943,16.21943,0,0,0,27.21944,57.25Z" style="fill:#919191"/><rect x="1.5" y="1.5" width="124" height="48" rx="20" ry="20" style="fill:#bfbfbf;stroke:#919191;stroke-miterlimit:10;stroke-width:3px"/><path d="M66.10939,18.72957c-25.07965,6.02258-46.79608,14.37152-60.66,22.62891A19.98377,19.98377,0,0,0,21.5,49.5h84a20.0588,20.0588,0,0,0,20-20v-8a19.80814,19.80814,0,0,0-2.96326-10.39966C107.17788,11.11147,87.33626,13.63216,66.10939,18.72957Z" style="fill:#fcfafb;opacity:0.6"/><rect x="1.5" y="1.5" width="124" height="48" rx="20" ry="20" style="fill:none;stroke:#919191;stroke-miterlimit:10;stroke-width:3px"/><path d="M27.21956,40.1888A14.71948,14.71948,0,1,1,41.9388,25.46956,14.736,14.736,0,0,1,27.21956,40.1888Z" style="fill:#606060"/><path d="M27.21944,12.25A13.21944,13.21944,0,1,1,14,25.46944,13.2344,13.2344,0,0,1,27.21944,12.25m0-3A16.21944,16.21944,0,1,0,43.43888,25.46944,16.21944,16.21944,0,0,0,27.21944,9.25Z" style="fill:#999"/><ellipse cx="30.82376" cy="29.07376" rx="14.05685" ry="11.17339" transform="translate(-11.53018 30.3112) rotate(-45)" style="fill:#fff;opacity:0.14"/><path d="M27.21944,12.25A13.21944,13.21944,0,1,1,14,25.46944,13.2344,13.2344,0,0,1,27.21944,12.25m0-3A16.21944,16.21944,0,1,0,43.43888,25.46944,16.21944,16.21944,0,0,0,27.21944,9.25Z" style="fill:#919191"/><rect x="1.5" y="97.5" width="124" height="48" rx="20" ry="20" style="fill:#bfbfbf;stroke:#919191;stroke-miterlimit:10;stroke-width:3px"/><path d="M66.10939,114.72957c-25.07965,6.02258-46.79608,14.37152-60.66,22.62891A19.98377,19.98377,0,0,0,21.5,145.5h84a20.0588,20.0588,0,0,0,20-20v-8a19.80814,19.80814,0,0,0-2.96326-10.39966C107.17788,107.11147,87.33626,109.63216,66.10939,114.72957Z" style="fill:#fcfafb;opacity:0.6"/><rect x="1.5" y="97.5" width="124" height="48" rx="20" ry="20" style="fill:none;stroke:#919191;stroke-miterlimit:10;stroke-width:3px"/><path d="M27.21956,136.1888A14.71948,14.71948,0,1,1,41.9388,121.46908,14.73644,14.73644,0,0,1,27.21956,136.1888Z" style="fill:#606060"/><path d="M27.21944,108.25A13.21944,13.21944,0,1,1,14,121.46944,13.23442,13.23442,0,0,1,27.21944,108.25m0-3a16.21944,16.21944,0,1,0,16.21944,16.21945A16.21944,16.21944,0,0,0,27.21944,105.25Z" style="fill:#999"/><ellipse cx="30.82376" cy="125.07376" rx="14.05685" ry="11.17339" transform="translate(-79.41243 58.42894) rotate(-45)" style="fill:#fff;opacity:0.14"/><path d="M27.21944,108.25A13.21944,13.21944,0,1,1,14,121.46944,13.23442,13.23442,0,0,1,27.21944,108.25m0-3a16.21944,16.21944,0,1,0,16.21944,16.21945A16.21944,16.21944,0,0,0,27.21944,105.25Z" style="fill:#919191"/></g></g></svg>