<svg xmlns="http://www.w3.org/2000/svg" viewBox="0 0 140 57.875"><title>property</title><g id="Layer_2" data-name="Layer 2"><g id="Layer_2-2" data-name="Layer 2"><rect x="1.5" y="9.25" width="137" height="39.375" rx="19.68748" ry="19.68748" style="fill:#bfbfbf;stroke:#919191;stroke-miterlimit:10;stroke-width:3px"/><path d="M83.4375,56.375A27.4375,27.4375,0,1,1,110.875,28.9375,27.46881,27.46881,0,0,1,83.4375,56.375Z" style="fill:#c9c9c9"/><path d="M83.4375,3A25.9375,25.9375,0,1,1,57.5,28.9375,25.96687,25.96687,0,0,1,83.4375,3m0-3A28.9375,28.9375,0,1,0,112.375,28.9375,28.93751,28.93751,0,0,0,83.4375,0Z" style="fill:#999"/><ellipse cx="88.58194" cy="34.08194" rx="25.07917" ry="19.93472" transform="translate(0.03328 68.25026) rotate(-42.14438)" style="fill:#fff;opacity:0.81"/><path d="M83.4375,3A25.9375,25.9375,0,1,1,57.5,28.9375,25.96687,25.96687,0,0,1,83.4375,3m0-3A28.9375,28.9375,0,1,0,112.375,28.9375,28.93751,28.93751,0,0,0,83.4375,0Z" style="fill:#919191"/></g></g></svg>